<!-- Generator: Adobe Illustrator 19.2.1, SVG Export Plug-In  -->
<svg version="1.1"
	 xmlns="http://www.w3.org/2000/svg" xmlns:xlink="http://www.w3.org/1999/xlink" xmlns:a="http://ns.adobe.com/AdobeSVGViewerExtensions/3.0/"
	 x="0px" y="0px" width="15.208px" height="32.902px" viewBox="0 0 15.208 32.902"
	 style="enable-background:new 0 0 15.208 32.902;" xml:space="preserve">
<style type="text/css">
	.st0{fill:#FFFFFF;}
</style>
<defs>
</defs>
<g>
	<path class="st0" d="M3.23,24.668c0.001-2.373-0.021-4.746,0.014-7.118c0.011-0.737-0.105-1.093-0.984-1.099
		C0,16.435,0.001,16.386,0,14.175c0-0.352,0-0.703,0-1.055c0-2.345-0.001-2.376,2.36-2.461c0.705-0.025,0.884-0.261,0.885-0.927
		c0.002-1.403-0.121-2.81,0.116-4.209c0.546-3.225,2.572-5.192,5.84-5.453c1.703-0.136,3.425-0.029,5.138-0.063
		c0.71-0.014,0.888,0.315,0.868,0.968c-0.039,1.273-0.041,2.549,0,3.822c0.023,0.7-0.241,0.931-0.922,0.899
		c-0.921-0.043-1.845-0.01-2.768-0.009c-0.629,0.001-1.163,0.232-1.335,0.86c-0.33,1.204-0.136,2.445-0.122,3.668
		c0.006,0.492,0.479,0.42,0.815,0.423c1.142,0.009,2.286,0.028,3.427-0.006c0.646-0.02,0.992,0.102,0.886,0.87
		c-0.192,1.392-0.344,2.791-0.449,4.192c-0.049,0.647-0.34,0.809-0.925,0.787c-0.878-0.032-1.762,0.051-2.635-0.023
		c-0.94-0.079-1.181,0.282-1.173,1.19c0.042,4.613-0.013,9.228,0.044,13.841c0.013,1.066-0.235,1.48-1.365,1.403
		c-1.443-0.099-2.901-0.071-4.348-0.006c-0.861,0.039-1.148-0.219-1.127-1.102C3.266,29.414,3.23,27.04,3.23,24.668z"/>
</g>
</svg>