<!-- Generator: Adobe Illustrator 19.2.1, SVG Export Plug-In  -->
<svg version="1.1"
	 xmlns="http://www.w3.org/2000/svg" xmlns:xlink="http://www.w3.org/1999/xlink" xmlns:a="http://ns.adobe.com/AdobeSVGViewerExtensions/3.0/"
	 x="0px" y="0px" width="32.733px" height="32.738px" viewBox="0 0 32.733 32.738"
	 style="enable-background:new 0 0 32.733 32.738;" xml:space="preserve">
<style type="text/css">
	.st0{fill:#FFFFFF;}
</style>
<defs>
</defs>
<path class="st0" d="M0.039,16.34c0.007-3.118-0.037-6.237,0.017-9.355C0.131,2.669,2.335,0.18,6.682,0.09
	c6.398-0.133,12.802-0.104,19.201-0.01c4.317,0.063,6.721,2.386,6.782,6.734c0.09,6.399,0.1,12.803-0.023,19.201
	c-0.083,4.34-2.521,6.622-6.846,6.667c-6.236,0.065-12.475,0.09-18.709-0.021c-4.666-0.083-6.878-2.328-7.034-6.967
	C-0.053,22.579,0.032,19.458,0.039,16.34z M3.51,13.298c-0.109,1.199-0.279,2.163-0.27,3.125
	c0.13,14.434-1.542,13.151,12.656,13.083c15.079-0.073,15.308-0.38,13.123-16.223c-1.22,0-2.476,0-3.733,0
	c0.051,7.041-1.743,10.695-6.585,11.537C9.7,26.383,7.331,20.907,7.406,13.07C6.146,13.144,4.897,13.217,3.51,13.298z
	 M16.434,10.844c-3.52,0.279-5.571,2.05-5.515,5.611c0.056,3.556,2.132,5.42,5.638,5.357c3.304-0.06,5.157-1.979,5.225-5.257
	C21.856,13.014,19.859,11.191,16.434,10.844z M23.818,8.775c1.722,0,3.184,0,4.934,0c-0.129-1.75-0.229-3.109-0.331-4.491
	c-1.691,0-3.05,0-4.603,0C23.818,5.912,23.818,7.267,23.818,8.775z"/>
</svg>