<!-- Generator: Adobe Illustrator 19.2.1, SVG Export Plug-In  -->
<svg version="1.1"
	 xmlns="http://www.w3.org/2000/svg" xmlns:xlink="http://www.w3.org/1999/xlink" xmlns:a="http://ns.adobe.com/AdobeSVGViewerExtensions/3.0/"
	 x="0px" y="0px" width="31.898px" height="26.637px" viewBox="0 0 31.898 26.637"
	 style="enable-background:new 0 0 31.898 26.637;" xml:space="preserve">
<style type="text/css">
	.st0{fill:#FFFFFF;}
</style>
<defs>
</defs>
<g>
	<path class="st0" d="M31.08,0.899c-0.206,1.342-1.27,2.114-2.168,3.111c1.138,0.231,1.99-0.6,2.987-0.452L31.873,3.54
		c-0.447,0.988-1.242,1.696-2.056,2.343c-0.645,0.513-0.894,1.041-0.9,1.88C28.811,22.27,12.968,31.336,0.428,24.085
		C0.324,24.025,0.245,23.92,0,23.692c1.745-0.07,3.346-0.021,4.885-0.516c1.549-0.498,3.025-1.111,4.465-2.298
		c-2.887-0.448-4.923-1.793-6.043-4.571c0.904-0.044,1.689-0.082,2.475-0.12c-1.415-0.727-2.691-1.528-3.599-2.805
		c-0.253-0.355-0.47-0.743-0.656-1.138c-0.374-0.795-0.89-1.759-0.459-2.471c0.275-0.454,1.214,0.323,1.896,0.35
		c0.172,0.007,0.345,0.001,0.714,0.001C0.959,7.616,0.219,4.789,1.768,1.4c0.594,0.565,1.095,1.036,1.59,1.514
		c3.178,3.072,6.987,4.784,11.358,5.317c0.733,0.089,0.895-0.136,0.846-0.844c-0.206-2.971,1.003-5.256,3.649-6.599
		c2.595-1.316,5.125-0.963,7.369,0.903c0.543,0.451,1.027,0.336,1.585,0.228c1.028-0.198,1.873-0.928,2.942-1L31.08,0.899z"/>
</g>
</svg>